<?xml version="1.0" encoding="UTF-8"?>
<svg viewBox="0 0 2525 600" xmlns="http://www.w3.org/2000/svg" xmlns:svg="http://www.w3.org/2000/svg">
  <defs>
    <radialGradient id="topLeft" cx="200" cy="200" r="230.2276" gradientUnits="userSpaceOnUse">
       <stop style="stop-color:#862e9f;stop-opacity:1;" offset="0.86851698" />
       <stop style="stop-color:#9d35bb;stop-opacity:1;" offset="1" />
    </radialGradient>
    <radialGradient id="bottomLeft" cx="148.8988" cy="116.6553" r="310" gradientUnits="userSpaceOnUse">
       <stop style="stop-color:#1c7363;stop-opacity:1;" offset="0.33052871" />
       <stop style="stop-color:#1da78e;stop-opacity:1;" offset="1" />
    </radialGradient>
    <linearGradient id="bottomRight" x1="392.7051" y1="350" x2="267.7051" y2="600" gradientUnits="userSpaceOnUse">
       <stop style="stop-color:#0e5cb2;stop-opacity:1;" offset="0" />
       <stop style="stop-color:#4794e9;stop-opacity:1;" offset="0.82513483" />
    </linearGradient>
    <linearGradient id="topRight" x1="24.6017" y1="103.8988" x2="375.3983" y2="496.1012" gradientUnits="userSpaceOnUse">
       <stop style="stop-color:#08b7ff;stop-opacity:1;" offset="0" />
       <stop style="stop-color:#c267ff;stop-opacity:1;" offset="1" />
    </linearGradient>
  </defs>
  <g fill="none">
    <path fill="url(#topLeft)" d="M65.10847396 52.33728906 A200 200 0 0 0 24.60172829 103.89877066 A200 200 0 0 0 0 200 L0 100 A50 50 0 0 1 65.10847396 52.33728906 Z" />
    <path fill="url(#bottomLeft)" d="M100 250 L100 400 A50 50 0 1 1 0 400 L0 200 A200 200 0 0 1 24.60172829 103.89877066 A93.44649932 93.44649932 0 0 0 64.76295573 232.38147787 L100 250 Z" />
    <path fill="url(#bottomRight)" d="M375.39827171 496.10122934 A200 200 0 0 1 100 573.20508076 A50 50 0 1 1 150 486.60254038 A100 100 0 0 0 300 400 L300 350 L335.23704427 367.61852213 A93.44649932 93.44649932 0 0 1 375.39827171 496.10122934 Z" />
    <path fill="url(#topRight)" d="M375.39827171 496.10122934 A200 200 0 0 0 400 400 L400 200 A200 200 0 0 0 65.10847396 52.33728906 A200 200 0 0 0 24.60172829 103.89877066 A93.44649932 93.44649932 0 0 0 64.76295573 232.38147787 L100 250 L300 350 L335.23704427 367.61852213 A93.44649932 93.44649932 0 0 1 375.39827171 496.10122934 Z" />
  </g>
    <path d="m 554.49601,289.08855 q -17.09284,0 -30.76712,-4.69792 Q 510.05462,279.69272 500,271.15105 l 6.43495,-15.80208 q 7.03824,5.55207 14.27756,9.39583 7.23933,3.63021 15.48411,5.55209 8.44588,1.70833 18.29939,1.70833 17.49503,0 25.73982,-6.61979 8.44587,-6.83334 8.44587,-17.93751 0,-9.60937 -5.83167,-14.73437 -5.83168,-5.125 -20.31033,-8.11459 l -21.51687,-4.69791 q -19.50595,-4.27083 -29.15838,-13.88021 -9.45135,-9.82292 -9.45135,-26.47917 0,-13.45312 6.63605,-23.48958 6.83715,-10.25 18.70159,-15.80209 12.06553,-5.55208 28.15292,-5.55208 14.88084,0 27.54965,4.69792 12.66881,4.69791 21.31578,13.88021 l -6.43495,15.16145 q -9.04916,-8.7552 -19.50595,-12.59895 -10.25572,-4.0573 -23.32671,-4.0573 -15.8863,0 -25.13654,7.26042 -9.25025,7.26042 -9.25025,19.64584 0,9.82292 5.83168,15.58854 5.83168,5.55207 19.30486,8.54167 l 21.51688,4.48437 q 20.51142,4.27083 29.96275,13.45313 9.65243,9.18229 9.65243,25.41146 0,12.8125 -6.43495,22.63542 -6.43496,9.60937 -18.29941,14.94791 -11.86443,5.33854 -28.15292,5.33854 z m 77.42059,-1.92188 V 179.75521 h 18.29941 v 107.41146 z m -1.60873,-130.90104 v -20.92708 h 21.71796 v 20.92708 z m 50.47417,130.90104 v -82 q 0,-6.19271 -0.40219,-12.59896 -0.40219,-6.40625 -1.20655,-12.8125 h 17.69612 l 2.01093,23.06251 h -2.41311 q 4.02184,-11.95834 12.8699,-18.36459 8.84806,-6.61979 21.1147,-6.61979 12.46771,0 20.51141,6.40625 8.04369,6.1927 10.85899,19.64583 h -3.01639 q 3.82076,-11.95834 13.47318,-19.00521 9.65244,-7.04687 22.52234,-7.04687 16.69067,0 25.13654,10.46354 8.44588,10.25 8.44588,32.03125 v 66.83854 h -18.2994 v -65.77083 q 0,-14.73438 -4.82622,-21.14063 -4.82622,-6.61979 -15.28301,-6.61979 -12.26664,0 -19.30486,8.96875 -7.03824,8.75521 -7.03824,23.91667 v 60.64583 h -18.29939 v -65.77083 q 0,-14.73438 -4.82622,-21.14063 -4.62512,-6.61979 -15.28301,-6.61979 -12.26663,0 -19.30487,8.96875 -6.83713,8.75521 -6.83713,23.91667 v 60.64583 z m 177.56439,46.125 v -128.125 q 0,-6.19271 -0.40218,-12.59896 -0.40219,-6.40625 -1.20655,-12.8125 h 17.69611 l 2.21203,24.77084 h -2.21203 q 3.01639,-12.38542 12.86991,-19.43229 9.85352,-7.26042 23.52781,-7.26042 13.47318,0 23.5278,6.61979 10.05461,6.61979 15.4841,19.21875 5.63058,12.38541 5.63058,29.6823 0,17.29687 -5.63058,29.89583 -5.42949,12.59895 -15.4841,19.21875 -10.05462,6.61979 -23.5278,6.61979 -13.4732,0 -23.32671,-7.04688 -9.65244,-7.26041 -13.07101,-19.43228 h 2.21203 v 70.68228 z m 48.26215,-59.57813 q 13.87537,0 22.12015,-10.24999 8.2448,-10.25 8.2448,-30.10937 0,-19.85938 -8.2448,-29.89584 -8.24478,-10.03647 -22.12015,-10.03647 -13.87536,0 -22.12015,10.03647 -8.04369,10.03646 -8.04369,29.89584 0,19.85937 8.04369,30.10937 8.24479,10.24999 22.12015,10.24999 z m 119.44872,15.37501 q -24.1311,0 -38.20752,-14.73438 -13.87536,-14.73437 -13.87536,-40.57292 0,-17.08333 6.03277,-29.46874 6.23385,-12.59896 17.09284,-19.4323 10.85897,-7.04687 25.33767,-7.04687 13.8753,0 23.5278,6.40625 9.6524,6.1927 14.6797,17.72395 5.0273,11.53126 5.0273,27.33334 v 6.40625 h -77.42053 v -11.53125 h 64.95283 l -3.4186,2.77605 q 0,-16.65626 -7.0382,-25.83855 -6.8372,-9.1823 -20.3103,-9.1823 -14.6798,0 -22.72347,10.89064 -8.0437,10.67708 -8.0437,29.25521 v 1.92187 q 0,19.64583 9.04917,29.68229 9.2502,10.03645 25.5387,10.03645 9.0492,0 16.8918,-2.77603 7.8426,-2.77604 15.0819,-9.18229 l 6.0328,13.45313 q -6.8372,6.61979 -17.0929,10.24999 -10.0546,3.63021 -21.1147,3.63021 z m 101.1496,0 q -15.8863,0 -24.1311,-9.18229 -8.0437,-9.39583 -8.0437,-28.18751 v -57.01562 h -19.707 v -14.94792 h 19.707 v -28.82812 l 18.2994,-5.33854 v 34.16666 h 28.5551 v 14.94792 h -28.5551 v 55.30729 q 0,12.38543 4.0219,17.72396 4.2229,5.125 12.0655,5.125 4.0218,0 6.8372,-0.64063 3.0164,-0.85416 5.4294,-1.92186 v 16.01562 q -3.0164,1.28125 -7.0382,1.92188 -3.8207,0.85416 -7.4404,0.85416 z m 72.3934,0 q -13.2721,0 -23.3268,-6.61979 -10.0545,-6.6198 -15.6851,-19.21875 -5.6306,-12.59896 -5.6306,-29.89583 0,-17.29689 5.6306,-29.6823 5.6306,-12.59896 15.6851,-19.21875 10.0547,-6.61979 23.3268,-6.61979 13.4732,0 23.3267,7.26042 10.0546,7.04687 13.2721,19.43229 h -2.4131 l 2.212,-24.77084 h 17.6962 q -0.6034,6.40625 -1.2066,12.8125 -0.4022,6.40625 -0.4022,12.59896 v 82 h -18.2994 v -24.55728 h 2.212 q -3.2174,12.17187 -13.2721,19.43228 -9.8536,7.04688 -23.1256,7.04688 z m 4.2229,-15.37501 q 13.6743,0 21.9191,-10.24999 8.2448,-10.25 8.2448,-30.10937 0,-19.85938 -8.2448,-29.89584 -8.2448,-10.03647 -21.9191,-10.03647 -13.6742,0 -22.1201,10.03647 -8.2448,10.03646 -8.2448,29.89584 0,19.85937 8.2448,30.10937 8.2448,10.24999 22.1201,10.24999 z m 167.912,13.45313 V 153.48959 h -49.0665 V 136.6198 h 117.2368 v 16.86979 h -49.2676 v 133.67708 z m 116.6336,1.92188 q -24.131,0 -38.2075,-14.73438 -13.8754,-14.73437 -13.8754,-40.57292 0,-17.08333 6.0328,-29.46874 6.2339,-12.59896 17.0928,-19.4323 10.8591,-7.04687 25.3376,-7.04687 13.8755,0 23.5279,6.40625 9.6524,6.1927 14.6797,17.72395 5.0273,11.53126 5.0273,27.33334 v 6.40625 h -77.4205 v -11.53125 h 64.9528 l -3.4185,2.77605 q 0,-16.65626 -7.0383,-25.83855 -6.8372,-9.1823 -20.3104,-9.1823 -14.6797,0 -22.7233,10.89064 -8.0437,10.67708 -8.0437,29.25521 v 1.92187 q 0,19.64583 9.0491,29.68229 9.2503,10.03645 25.5387,10.03645 9.0492,0 16.8917,-2.77603 7.8427,-2.77604 15.082,-9.18229 l 6.0328,13.45313 q -6.8372,6.61979 -17.0929,10.24999 -10.0545,3.63021 -21.1147,3.63021 z m 106.9812,0 q -15.082,0 -26.142,-6.61979 -11.0601,-6.83334 -17.294,-19.4323 -6.0328,-12.8125 -6.0328,-30.32291 0,-17.29688 6.2339,-29.46876 6.2339,-12.38541 17.294,-18.79166 11.06,-6.61979 25.9409,-6.61979 9.8535,0 19.1037,3.63021 9.2503,3.41666 15.0819,10.03646 l -6.2339,13.66666 q -5.8316,-5.97916 -12.8698,-8.7552 -7.0383,-2.9896 -13.8754,-2.9896 -14.8809,0 -23.3267,10.25001 -8.4459,10.03646 -8.4459,29.25521 0,19.43229 8.4459,29.89583 8.4458,10.46355 23.3267,10.46355 6.636,0 13.6743,-2.77604 7.0383,-2.77605 13.0709,-8.75521 l 6.2339,13.45313 q -6.0327,6.83332 -15.484,10.46353 -9.2503,3.41667 -18.7016,3.41667 z m 56.5069,-1.92188 V 130 h 18.2993 v 73.03126 h -2.6141 q 4.424,-12.38542 14.2776,-18.79167 9.8534,-6.40625 22.7233,-6.40625 18.2995,0 26.9464,10.46354 8.8481,10.46354 8.8481,31.60417 v 67.26562 h -18.2994 v -66.19792 q 0,-14.30729 -5.2284,-20.71354 -5.2284,-6.61979 -17.0928,-6.61979 -13.2722,0 -21.5169,8.75521 -8.0438,8.7552 -8.0438,23.27605 v 61.49999 z m 118.4435,0 v -82 q 0,-6.19271 -0.4022,-12.59896 -0.4022,-6.40625 -1.2065,-12.8125 h 17.6961 l 2.0109,23.06251 h -2.4131 q 4.6251,-12.17188 14.2775,-18.57813 9.6525,-6.40625 22.5224,-6.40625 17.8972,0 26.9464,10.46354 9.0492,10.25 9.0492,32.03125 v 66.83854 h -18.2995 v -65.77083 q 0,-14.73438 -5.4295,-21.14063 -5.4294,-6.61979 -16.8917,-6.61979 -13.6744,0 -21.718,8.75521 -7.8426,8.7552 -7.8426,23.70312 v 61.07292 z m 161.0752,1.92188 q -14.8809,0 -25.7399,-6.61979 -10.859,-6.83334 -16.8917,-19.21875 -6.0328,-12.59896 -6.0328,-29.89583 0,-17.08334 6.0328,-29.46876 6.0327,-12.59896 16.8917,-19.21875 10.859,-6.83333 25.7399,-6.83333 14.8808,0 25.7397,6.83333 11.0601,6.61979 16.8917,19.21875 6.0328,12.38542 6.0328,29.46876 0,17.29687 -6.0328,29.89583 -5.8316,12.38541 -16.8917,19.21875 -10.8589,6.61979 -25.7397,6.61979 z m 0,-15.37501 q 13.6742,0 21.919,-10.24999 8.2447,-10.25 8.2447,-30.10937 0,-19.85938 -8.2447,-29.89584 -8.2448,-10.03647 -21.919,-10.03647 -13.8755,0 -22.1203,10.03647 -8.0436,10.03646 -8.0436,29.89584 0,19.85937 8.0436,30.10937 8.2448,10.24999 22.1203,10.24999 z m 73.1976,13.45313 V 130 h 18.2993 v 157.16667 z m 91.4969,1.92188 q -14.8809,0 -25.7398,-6.61979 -10.8589,-6.83334 -16.8917,-19.21875 -6.0328,-12.59896 -6.0328,-29.89583 0,-17.08334 6.0328,-29.46876 6.0328,-12.59896 16.8917,-19.21875 10.8589,-6.83333 25.7398,-6.83333 14.8809,0 25.7398,6.83333 11.0601,6.61979 16.8918,19.21875 6.0327,12.38542 6.0327,29.46876 0,17.29687 -6.0327,29.89583 -5.8317,12.38541 -16.8918,19.21875 -10.8589,6.61979 -25.7398,6.61979 z m 0,-15.37501 q 13.6743,0 21.9191,-10.24999 8.2448,-10.25 8.2448,-30.10937 0,-19.85938 -8.2448,-29.89584 -8.2448,-10.03647 -21.9191,-10.03647 -13.8754,0 -22.1202,10.03647 -8.0436,10.03646 -8.0436,29.89584 0,19.85937 8.0436,30.10937 8.2448,10.24999 22.1202,10.24999 z m 118.2423,61.28647 q -13.2721,0 -24.3321,-3.41666 -11.0602,-3.41667 -19.9082,-10.46355 l 4.8262,-14.30729 q 6.2339,4.48437 12.2666,7.26041 6.0328,2.77605 12.4678,4.0573 6.636,1.28125 13.6742,1.28125 14.8808,0 22.3213,-8.11459 7.4404,-8.11458 7.4404,-23.06249 V 258.125 h 2.011 q -3.2175,12.17189 -13.2722,19.4323 -9.8534,7.04688 -23.3266,7.04688 -13.6744,0 -23.93,-6.40625 -10.0547,-6.6198 -15.6852,-18.57813 -5.6306,-12.17188 -5.6306,-28.40104 0,-16.44271 5.6306,-28.40104 5.6305,-11.95834 15.6852,-18.36459 10.2556,-6.61979 23.93,-6.61979 13.4732,0 23.3266,7.04687 9.8535,7.04687 13.071,19.4323 l -1.8098,-1.92188 1.8098,-22.63542 h 17.6961 q -0.6032,6.40625 -1.2065,12.8125 -0.4022,6.40625 -0.4022,12.59896 v 80.71876 q 0,23.91666 -11.8644,36.51562 -11.6634,12.59896 -34.789,12.59896 z m -1.8099,-65.77084 q 13.8755,0 22.1203,-10.03645 8.2448,-10.03646 8.2448,-27.97396 0,-18.15105 -8.2448,-27.97397 -8.2448,-9.82292 -22.1203,-9.82292 -14.0764,0 -22.5222,9.82292 -8.2448,9.82292 -8.2448,27.97397 0,17.9375 8.2448,27.97396 8.4458,10.03645 22.5222,10.03645 z m 79.0293,17.9375 V 179.75521 h 18.2994 v 107.41146 z m -1.6087,-130.90104 v -20.92708 h 21.718 v 20.92708 z m 96.5243,132.82292 q -24.131,0 -38.2075,-14.73438 -13.8754,-14.73437 -13.8754,-40.57292 0,-17.08333 6.0328,-29.46874 6.2339,-12.59896 17.0929,-19.4323 10.8589,-7.04687 25.3376,-7.04687 13.8753,0 23.5277,6.40625 9.6525,6.1927 14.6799,17.72395 5.0272,11.53126 5.0272,27.33334 v 6.40625 h -77.4205 v -11.53125 h 64.9528 l -3.4186,2.77605 q 0,-16.65626 -7.0382,-25.83855 -6.8371,-9.1823 -20.3103,-9.1823 -14.6797,0 -22.7234,10.89064 -8.0438,10.67708 -8.0438,29.25521 v 1.92187 q 0,19.64583 9.0492,29.68229 9.2503,10.03645 25.5388,10.03645 9.0491,0 16.8917,-2.77603 7.8426,-2.77604 15.0819,-9.18229 l 6.0328,13.45313 q -6.8371,6.61979 -17.0928,10.24999 -10.0547,3.63021 -21.1148,3.63021 z m 97.7309,0 q -12.2667,0 -22.9246,-3.41667 -10.4568,-3.41667 -17.2938,-9.82292 l 5.8316,-13.45311 q 7.4404,5.97916 16.2885,9.18228 9.0492,2.98959 18.5005,2.98959 11.4623,0 17.2939,-4.48438 6.0328,-4.48437 6.0328,-11.95834 0,-5.97916 -3.8208,-9.60937 -3.8207,-3.6302 -12.0655,-5.33855 l -19.1038,-4.05728 q -12.8699,-3.20313 -19.5059,-10.25001 -6.4351,-7.26041 -6.4351,-18.57812 0,-9.39583 4.8263,-16.65625 4.8263,-7.47396 13.6743,-11.53124 9.0491,-4.27084 21.1146,-4.27084 11.0601,0 20.5115,3.41666 9.6524,3.41667 15.8862,10.03646 l -6.0326,13.02605 q -6.2339,-5.76563 -14.0766,-8.75522 -7.6414,-3.20312 -15.6852,-3.20312 -11.6633,0 -17.2939,4.91146 -5.6306,4.69791 -5.6306,12.38541 0,5.76563 3.4186,9.60938 3.4186,3.63021 11.0601,5.55209 l 19.1037,4.05728 q 13.4732,2.9896 20.3104,9.82292 6.8371,6.83334 6.8371,18.15105 0,10.03646 -5.2284,17.29687 -5.0274,7.26042 -14.2775,11.10417 -9.0492,3.84375 -21.3158,3.84375 z" />
  <path d="m 518.76221,466.96127 q -6.5028,0 -10.87355,-0.99305 -4.37074,-0.99305 -7.88866,-2.38331 v -4.0715 q 3.62452,1.68818 8.20847,2.78054 4.69055,1.09235 10.66035,1.09235 3.51792,0 7.24904,-0.79444 3.73112,-0.89374 6.92923,-2.78053 3.1981,-1.9861 5.11696,-5.06455 2.02547,-3.07846 2.02547,-7.34856 0,-4.17081 -2.02547,-7.05065 -1.91886,-2.87984 -5.43678,-5.06455 -3.4113,-2.28401 -8.20846,-4.56802 -3.62453,-1.78749 -6.92923,-4.0715 -3.30471,-2.28401 -5.33017,-5.46176 -2.02548,-3.17776 -2.02548,-7.64648 0,-5.26316 2.02548,-8.93744 2.13207,-3.67428 5.64998,-5.95829 3.62452,-2.38332 7.88866,-3.47567 4.37074,-1.09236 8.74149,-1.09236 5.86319,0 9.91412,0.99305 4.15753,0.99305 7.99526,2.78054 l -1.70566,3.47567 q -3.94432,-1.78749 -7.67544,-2.68123 -3.73113,-0.99305 -8.63489,-0.99305 -3.0915,0 -6.60942,0.79444 -3.41131,0.79444 -6.50281,2.68123 -2.9849,1.78748 -4.90376,4.76663 -1.91887,2.97915 -1.91887,7.44787 0,3.87289 1.81227,6.55412 1.81226,2.58193 4.69055,4.46872 2.9849,1.78749 6.39621,3.47567 4.79716,2.38331 8.63488,4.86593 3.94434,2.48263 6.183,5.9583 2.34528,3.37637 2.34528,8.54022 0,5.36246 -2.34528,9.13605 -2.23866,3.77358 -6.07639,6.15689 -3.73112,2.28402 -8.31508,3.37637 -4.47734,1.09235 -9.0613,1.09235 z m 35.71224,-0.99305 12.04619,-52.63157 h 4.05094 l -11.9396,52.63157 z m 17.37636,-64.74676 q -1.27923,0 -2.13207,-0.69514 -0.85282,-0.69514 -0.85282,-1.9861 0,-1.09235 0.42641,-2.0854 0.42641,-1.09236 1.27925,-1.68818 0.85282,-0.69514 2.13207,-0.69514 1.49244,0 2.13207,0.79444 0.74622,0.79444 0.74622,1.8868 0,1.58887 -1.06604,3.07844 -1.06603,1.39028 -2.66509,1.39028 z m 5.7567,64.74676 12.0462,-52.63157 h 3.4113 l -2.77169,13.00893 h 0.31982 q 1.70566,-2.97914 4.47734,-6.15689 2.8783,-3.27707 6.92923,-5.56108 4.05093,-2.28401 9.1679,-2.28401 6.92923,0 9.91413,3.97219 2.98489,3.8729 2.77168,10.22841 h 0.21321 q 1.81227,-3.17776 4.69056,-6.45482 2.9849,-3.27706 7.03583,-5.46177 4.15753,-2.28401 9.27451,-2.28401 6.39621,0 9.91412,3.37637 3.51792,3.27706 3.51792,9.63257 0,1.58887 -0.31982,3.37636 -0.2132,1.78749 -0.63962,3.57498 l -7.56884,33.66434 h -4.15754 l 7.78206,-34.06156 q 0.42641,-1.78749 0.53301,-3.27706 0.21321,-1.48957 0.21321,-2.78054 0,-5.06455 -2.77169,-7.54717 -2.66509,-2.48262 -7.46225,-2.48262 -3.73112,0 -7.35564,1.8868 -3.51791,1.88679 -6.50282,5.16384 -2.98489,3.17776 -5.22357,7.44787 -2.23867,4.27011 -3.30471,9.03674 l -5.96979,26.6137 h -4.15754 l 7.56885,-32.8699 q 0.53302,-2.18471 0.63962,-4.17081 0.21321,-1.9861 0.21321,-3.27705 0,-4.66734 -2.55849,-7.24926 -2.55848,-2.58193 -7.35564,-2.58193 -3.73112,0 -7.35564,1.8868 -3.51791,1.88679 -6.50281,5.16384 -2.98489,3.27707 -5.22357,7.54718 -2.23868,4.2701 -3.30471,9.23534 l -5.9698,26.31579 z m 85.2829,23.23735 17.26976,-75.86892 h 3.41132 l -2.66509,13.00893 h 0.21321 q 2.13207,-3.37636 5.33018,-6.55412 3.3047,-3.17775 7.56884,-5.26315 4.26414,-2.08541 9.48772,-2.08541 5.01036,0 8.63488,2.28402 3.73112,2.1847 5.64998,6.35551 2.02547,4.1708 2.02547,9.93049 0,5.06455 -1.17264,10.12909 -1.06604,5.06455 -3.41131,9.73188 -2.23867,4.56802 -5.75659,8.2423 -3.51792,3.67428 -8.20847,5.75969 -4.58395,2.08539 -10.34054,2.08539 -5.01036,0 -8.42168,-1.78748 -3.30471,-1.78749 -5.22357,-4.56803 -1.91886,-2.87984 -2.55848,-5.85898 h -0.31981 q -0.42642,2.97914 -1.17264,6.35551 -0.63962,3.37636 -1.27924,6.25621 l -5.01037,21.84707 z m 27.93011,-25.71997 q 5.01037,0 8.8481,-1.88679 3.94433,-1.88679 6.92923,-5.06455 2.98489,-3.27706 5.01036,-7.44786 2.02547,-4.1708 2.9849,-8.83814 1.06603,-4.66732 1.06603,-9.33465 0,-7.05065 -3.51791,-11.02284 -3.41131,-4.0715 -9.70092,-4.0715 -3.41131,0 -6.60942,1.29097 -3.1981,1.29096 -6.0764,3.67427 -2.87829,2.28402 -5.22357,5.36247 -2.34527,3.07844 -4.05093,6.85203 -1.70566,3.67428 -2.66509,7.74578 -0.95943,4.0715 -0.95943,8.34161 0,7.14995 3.83772,10.82423 3.83773,3.57497 10.12733,3.57497 z m 38.05742,2.48262 17.16316,-75.47169 h 4.15754 l -17.16317,75.47169 z m 45.94622,0.99305 q -5.33018,0 -9.80752,-2.08539 -4.47735,-2.18471 -7.24904,-6.65343 -2.77169,-4.46872 -2.77169,-11.51937 0,-6.95134 2.13207,-13.10824 2.13207,-6.25621 6.0764,-11.02284 3.94433,-4.76664 9.1679,-7.44786 5.33017,-2.78054 11.51317,-2.78054 6.39621,0 10.12734,3.27706 3.73113,3.17775 3.73113,8.34161 0,4.66733 -2.6651,7.94439 -2.55848,3.17776 -7.24903,5.26315 -4.58395,1.9861 -10.98016,2.97915 -6.39621,0.89375 -13.96506,0.89375 h -3.30471 q -0.10661,0.99305 -0.21321,2.58192 -0.1066,1.58888 -0.1066,3.07845 0,8.143 4.37074,12.51242 4.37074,4.2701 11.93959,4.2701 4.47735,0 8.10187,-1.09235 3.62452,-1.19166 6.60941,-2.28401 v 3.57497 q -2.77168,1.29096 -6.82262,2.28401 -4.05093,0.99305 -8.63488,0.99305 z m -10.34054,-29.29493 q 8.42168,0 14.92449,-1.39027 6.60941,-1.48957 10.34054,-4.46872 3.83772,-2.97914 3.83772,-7.64647 0,-3.67428 -2.55848,-5.95829 -2.55848,-2.38332 -7.67545,-2.38332 -4.69056,0 -9.48771,2.58193 -4.69056,2.58192 -8.42168,7.44786 -3.62452,4.86594 -5.22357,11.81728 z m 90.613,29.29493 q -5.01037,0 -8.42167,-1.78748 -3.41132,-1.78749 -5.33018,-4.56803 -1.81226,-2.87984 -2.45188,-5.85898 h -0.31981 l -2.8783,11.22144 h -3.41131 l 17.16317,-75.47169 h 4.15753 l -4.79715,20.75472 q -0.42642,2.28401 -1.17264,5.06454 -0.63963,2.78054 -1.38585,5.36247 -0.63962,2.58192 -1.27924,4.66732 h 0.31981 q 2.13207,-3.27705 5.33017,-6.45481 3.19811,-3.27706 7.46225,-5.36246 4.26414,-2.08541 9.48771,-2.08541 5.01036,0 8.74149,2.28402 3.73112,2.1847 5.64999,6.35551 2.02546,4.1708 2.02546,9.83118 0,5.06455 -1.17264,10.2284 -1.06603,5.06455 -3.41132,9.73188 -2.23866,4.56802 -5.75658,8.2423 -3.51791,3.67428 -8.10187,5.75969 -4.58395,2.08539 -10.44714,2.08539 z m -0.1066,-3.47567 q 5.01036,0 8.84809,-1.88679 3.94433,-1.88679 6.92923,-5.06455 2.98489,-3.27706 5.01036,-7.44786 2.02546,-4.1708 2.9849,-8.83814 1.06604,-4.66732 1.06604,-9.33465 0,-7.05065 -3.51792,-11.02284 -3.41131,-4.0715 -9.70092,-4.0715 -3.62452,0 -6.92923,1.39027 -3.19811,1.29096 -6.0764,3.67428 -2.87829,2.28401 -5.22357,5.46176 -2.34528,3.17776 -3.94433,6.95134 -1.59905,3.67429 -2.55848,7.74579 -0.85283,3.97219 -0.85283,8.04369 0,7.14995 3.83772,10.82423 3.83773,3.57497 10.12734,3.57497 z M 882.28043,490 q -2.23867,0 -3.62451,-0.29791 -1.49245,-0.19861 -2.7717,-0.69514 v -3.47567 q 1.27925,0.49653 2.7717,0.79445 1.49244,0.29791 3.62451,0.29791 3.94434,0 7.03583,-2.78054 3.19811,-2.68123 6.60942,-8.34161 l 6.183,-9.93048 -9.1679,-52.23436 h 4.05093 l 5.7566,33.56504 q 0.53301,3.07846 0.95943,5.85899 0.42641,2.78053 0.63962,5.06455 0.31981,2.1847 0.42641,3.77358 h 0.2132 q 0.85284,-1.48957 1.91887,-3.67427 1.17264,-2.18471 2.66509,-4.76664 1.49245,-2.58193 3.1981,-5.36246 l 20.46788,-34.45879 h 4.47734 l -38.16405,63.55511 q -2.55849,4.17081 -5.11697,7.14995 -2.55848,2.97915 -5.54338,4.46872 Q 886.01155,490 882.28043,490 Z m 83.15082,-24.03178 16.09713,-70.90367 h 15.99051 q 14.39151,0 22.49331,7.05065 8.2085,7.05065 8.2085,21.54916 0,6.75273 -1.8123,13.00893 -1.8122,6.1569 -5.5434,11.51936 -3.6244,5.36246 -9.2745,9.33466 -5.5434,3.97219 -13.1122,6.25621 -7.46219,2.1847 -16.84332,2.1847 z m 16.41694,-3.57497 q 8.31507,0 14.92451,-1.98609 6.716,-1.9861 11.7264,-5.56108 5.117,-3.67428 8.5282,-8.44091 3.4113,-4.86594 5.117,-10.62562 1.7057,-5.85899 1.7057,-12.11519 0,-13.00894 -7.2491,-18.96723 -7.1424,-6.0576 -20.14806,-6.0576 h -11.40655 l -14.60468,63.75372 z m 76.54131,4.56802 q -5.3302,0 -9.8075,-2.08539 -4.4774,-2.18471 -7.2491,-6.65343 -2.7716,-4.46872 -2.7716,-11.51937 0,-6.95134 2.132,-13.10824 2.1321,-6.25621 6.0763,-11.02284 3.9444,-4.76664 9.168,-7.44786 5.3302,-2.78054 11.5132,-2.78054 6.3961,0 10.1273,3.27706 3.7311,3.17775 3.7311,8.34161 0,4.66733 -2.6651,7.94439 -2.5585,3.17776 -7.249,5.26315 -4.5839,1.9861 -10.9802,2.97915 -6.3962,0.89375 -13.965,0.89375 h -3.3047 q -0.1066,0.99305 -0.2133,2.58192 -0.1065,1.58888 -0.1065,3.07845 0,8.143 4.3707,12.51242 4.3707,4.2701 11.9396,4.2701 4.4773,0 8.1019,-1.09235 3.6245,-1.19166 6.6093,-2.28401 v 3.57497 q -2.7716,1.29096 -6.8225,2.28401 -4.051,0.99305 -8.6349,0.99305 z m -10.3406,-29.29493 q 8.4217,0 14.9245,-1.39027 6.6094,-1.48957 10.3406,-4.46872 3.8377,-2.97914 3.8377,-7.64647 0,-3.67428 -2.5585,-5.95829 -2.5585,-2.38332 -7.6755,-2.38332 -4.6905,0 -9.4877,2.58193 -4.6906,2.58192 -8.4216,7.44786 -3.6246,4.86594 -5.2236,11.81728 z m 54.0479,29.29493 q -5.4367,0 -9.4876,-1.19165 -4.051,-1.19166 -6.6094,-2.38332 v -4.0715 q 3.0915,1.68818 7.2489,2.97915 4.2643,1.19165 8.8481,1.19165 5.5434,0 8.9548,-1.39027 3.4113,-1.48957 5.0103,-3.97219 1.7057,-2.58193 1.7057,-5.85898 0,-3.07846 -1.599,-5.06455 -1.5992,-2.08541 -4.2642,-3.67428 -2.5585,-1.58888 -5.7566,-3.07845 -3.6245,-1.88679 -6.6094,-3.67429 -2.8783,-1.88679 -4.6905,-4.2701 -1.7057,-2.48262 -1.7057,-6.0576 0,-4.76663 2.4519,-7.84508 2.4518,-3.17776 6.716,-4.66733 4.3707,-1.58888 9.4877,-1.58888 5.117,0 9.0613,0.99305 3.9443,0.89375 6.8226,2.18471 l -1.3859,3.37636 q -2.665,-1.29096 -6.5027,-2.1847 -3.8377,-0.89375 -8.102,-0.89375 -6.1829,0 -10.3404,2.58193 -4.051,2.48262 -4.051,7.74578 0,2.78053 1.4924,4.66732 1.4925,1.7875 4.051,3.27707 2.5585,1.48957 5.7566,3.17775 3.5179,1.78749 6.5028,3.67428 3.0915,1.78749 5.0103,4.36941 1.9189,2.58193 1.9189,6.65343 0,4.27011 -2.2386,7.74578 -2.1322,3.37636 -6.5028,5.36246 -4.3708,1.88679 -11.1935,1.88679 z m 31.3415,-0.99305 12.0461,-52.63157 h 4.0509 l -11.9396,52.63157 z m 17.3763,-64.74676 q -1.2793,0 -2.1321,-0.69514 -0.8528,-0.69514 -0.8528,-1.9861 0,-1.09235 0.4264,-2.0854 0.4264,-1.09236 1.2792,-1.68818 0.8529,-0.69514 2.1322,-0.69514 1.4923,0 2.132,0.79444 0.7463,0.79444 0.7463,1.8868 0,1.58887 -1.0661,3.07844 -1.0661,1.39028 -2.6651,1.39028 z m 21.1076,88.57994 q -4.6906,0 -8.8481,-0.99305 -4.0509,-0.99305 -7.0359,-2.28402 v -3.97219 q 2.0256,0.99305 4.584,1.88679 2.6651,0.89375 5.5434,1.39027 2.9849,0.49653 5.7566,0.49653 9.4877,0 14.6047,-4.76664 5.117,-4.66733 7.0358,-12.90963 l 0.9595,-4.0715 q 0.6396,-2.68123 1.4923,-6.0576 0.9595,-3.37637 1.5992,-5.95829 h -0.2132 q -2.2387,3.47567 -5.7566,6.75273 -3.4114,3.27706 -7.6755,5.46177 -4.2642,2.1847 -9.3811,2.1847 -5.3302,0 -8.9547,-2.28401 -3.5179,-2.28401 -5.3302,-6.45481 -1.7056,-4.17081 -1.7056,-9.83118 0,-5.06455 1.1726,-10.1291 1.1726,-5.16385 3.4113,-9.73188 2.3453,-4.66733 5.8632,-8.2423 3.5179,-3.67428 8.1018,-5.75968 4.6906,-2.18471 10.4472,-2.18471 5.0104,0 8.3151,1.8868 3.4113,1.78748 5.2235,4.56801 1.9189,2.78054 2.5585,5.859 h 0.3198 l 2.9849,-11.32076 h 3.3048 l -12.6858,55.51142 q -1.386,6.55411 -4.584,11.22145 -3.1981,4.66733 -8.4217,7.14995 -5.117,2.58193 -12.6858,2.58193 z m 3.6245,-26.3158 q 3.0915,0 6.183,-1.19165 3.0915,-1.19166 5.9698,-3.37637 2.9849,-2.28401 5.4367,-5.26316 2.5586,-3.07845 4.3708,-6.75273 1.9189,-3.67428 2.985,-7.84508 1.0659,-4.27011 1.0659,-8.73883 0,-7.14995 -3.731,-10.82423 -3.7312,-3.67428 -10.1274,-3.67428 -4.9037,0 -8.8481,1.8868 -3.9444,1.88679 -6.9292,5.16384 -2.985,3.17776 -5.0104,7.44787 -2.0255,4.17081 -3.0915,8.83813 -0.9594,4.66733 -0.9594,9.23536 0,7.05064 2.9849,11.12214 3.0914,3.97219 9.7009,3.97219 z m 41.6819,2.48262 12.0463,-52.63157 h 3.5178 l -2.5584,13.00893 h 0.2132 q 1.8122,-3.07845 4.9037,-6.2562 3.1981,-3.27706 7.5689,-5.46177 4.4773,-2.28401 9.9141,-2.28401 4.6906,0 7.8886,1.48957 3.1982,1.48957 4.9038,4.36942 1.7057,2.87984 1.7057,7.14995 0,1.58887 -0.3198,3.47567 -0.2132,1.78749 -0.6396,3.47567 l -7.6755,33.66434 h -4.2641 l 7.782,-34.06156 q 0.4264,-1.88679 0.6396,-3.27706 0.2132,-1.48957 0.2132,-2.78054 0,-5.06455 -2.9849,-7.44786 -2.8783,-2.48263 -8.1018,-2.48263 -5.3302,0 -10.4472,3.17776 -5.0104,3.07845 -8.7415,8.44092 -3.7311,5.36246 -5.2235,12.11518 l -6.0764,26.31579 z m 51.4896,12.81034 q 2.5585,-4.66733 4.584,-8.83814 1.9188,-4.0715 3.5179,-7.94439 1.599,-3.87289 2.9849,-7.54716 h 4.3707 l 0.2132,1.19165 q -1.599,3.57498 -3.5179,7.64648 -1.9189,4.0715 -4.1576,8.04369 -2.2386,3.9722 -4.5839,7.44787 z m 58.7386,-12.81034 16.0971,-70.90367 h 38.2707 l -0.7462,3.57498 h -34.1132 l -6.3962,28.20258 h 31.981 l -0.7462,3.57498 h -31.981 l -7.3556,31.97616 h 34.0065 l -0.7463,3.57497 z m 44.4536,23.83318 q -1.599,0 -3.5179,-0.29792 -1.9188,-0.29791 -3.0915,-0.69513 v -3.57498 q 1.4924,0.49653 3.1981,0.79444 1.7056,0.29792 3.1981,0.29792 3.6245,0 5.9698,-2.58193 2.3453,-2.48262 3.5179,-7.54717 l 13.5387,-59.48361 h -9.9142 l 0.4264,-2.48262 10.234,-0.89375 1.7056,-7.44787 q 0.9595,-3.87289 2.3453,-6.85203 1.4924,-3.07846 3.6246,-5.06455 2.132,-1.9861 5.0103,-2.97915 2.9849,-0.99305 6.9293,-0.99305 2.5584,0 4.7971,0.49653 2.2386,0.39721 3.7311,0.89374 l -1.1726,3.37637 q -1.7057,-0.69514 -3.5179,-0.99305 -1.8123,-0.29792 -3.8377,-0.29792 -5.9698,0 -9.168,2.97915 -3.1981,2.97914 -4.6905,9.83118 l -1.5991,7.05065 h 24.3056 l 1.7057,-7.44787 q 0.9594,-3.97219 2.3453,-6.95134 1.4924,-2.97915 3.6245,-4.96524 2.1321,-1.9861 5.1169,-2.97915 2.9849,-0.99305 6.9292,-0.99305 2.4519,0 4.6906,0.49653 2.2387,0.39721 3.8378,0.89374 l -1.2793,3.37637 q -1.599,-0.69514 -3.5179,-0.99305 -1.8123,-0.29792 -3.7312,-0.29792 -6.0763,0 -9.2745,2.97915 -3.198,2.97914 -4.6905,9.83118 l -1.5991,7.05065 h 12.6858 l -0.7461,3.37637 h -12.6858 l -13.7519,59.98013 q -0.9595,4.46872 -2.7717,7.34856 -1.8123,2.97915 -4.3707,4.36941 -2.5586,1.39028 -6.0765,1.39028 -1.4924,0 -3.5179,-0.29792 -1.9188,-0.29791 -3.0914,-0.69513 v -3.57498 q 1.4924,0.49653 3.198,0.79444 1.8123,0.29792 3.1981,0.29792 3.6246,0 5.9698,-2.58193 2.3453,-2.48262 3.5179,-7.54717 l 13.5387,-59.48361 h -24.3056 l -13.7518,59.98013 q -0.9595,4.46872 -2.7718,7.34856 -1.8122,2.97915 -4.3707,4.36941 -2.5585,1.39028 -6.0764,1.39028 z m 67.2668,-23.83318 11.9396,-52.63157 h 4.1575 l -12.0462,52.63157 z m 17.2698,-64.74676 q -1.1727,0 -2.0255,-0.69514 -0.8528,-0.79444 -0.8528,-1.9861 0,-1.09235 0.4264,-2.0854 0.4264,-1.09236 1.2792,-1.68818 0.8528,-0.69514 2.1321,-0.69514 1.4925,0 2.1321,0.79444 0.6396,0.79444 0.6396,1.8868 0,1.58887 -1.066,3.07844 -0.9595,1.39028 -2.6651,1.39028 z m 28.8895,65.73981 q -6.5028,0 -11.1934,-2.58192 -4.584,-2.58193 -7.0358,-7.05065 -2.3453,-4.56802 -2.3453,-10.52631 0,-5.56108 1.2793,-10.62563 1.2792,-5.06454 3.7311,-9.33465 2.4518,-4.36941 6.0764,-7.54717 3.6245,-3.27706 8.315,-5.06454 4.6906,-1.8868 10.4472,-1.8868 3.6245,0 7.1424,0.69513 3.5179,0.59583 6.183,1.78749 l -1.2792,3.47567 q -2.5585,-1.29096 -5.8632,-1.88679 -3.1981,-0.59583 -6.183,-0.59583 -5.8632,0 -10.6604,2.48262 -4.6905,2.38332 -8.1018,6.55412 -3.3047,4.17081 -5.117,9.83118 -1.8123,5.56107 -1.8123,11.91658 0,4.76664 1.9189,8.63953 1.9189,3.77358 5.5434,6.0576 3.7311,2.1847 9.2745,2.1847 3.7312,0 6.9292,-0.79443 3.3047,-0.89375 6.6095,-2.18471 v 3.47567 q -2.6651,1.29096 -6.0765,2.0854 -3.4113,0.89374 -7.782,0.89374 z m 25.1584,-0.99305 12.0462,-52.63157 h 4.0509 l -11.9396,52.63157 z m 17.3764,-64.74676 q -1.2793,0 -2.1321,-0.69514 -0.8529,-0.69514 -0.8529,-1.9861 0,-1.09235 0.4265,-2.0854 0.4264,-1.09236 1.2792,-1.68818 0.8529,-0.69514 2.132,-0.69514 1.4925,0 2.1322,0.79444 0.7461,0.79444 0.7461,1.8868 0,1.58887 -1.0659,3.07844 -1.0661,1.39028 -2.6651,1.39028 z m 28.5698,65.73981 q -5.3302,0 -9.8075,-2.08539 -4.4774,-2.18471 -7.2491,-6.65343 -2.7717,-4.46872 -2.7717,-11.51937 0,-6.95134 2.1321,-13.10824 2.1321,-6.25621 6.0764,-11.02284 3.9444,-4.76664 9.1679,-7.44786 5.3302,-2.78054 11.5132,-2.78054 6.3962,0 10.1273,3.27706 3.7311,3.17775 3.7311,8.34161 0,4.66733 -2.6651,7.94439 -2.5584,3.17776 -7.249,5.26315 -4.584,1.9861 -10.9802,2.97915 -6.3961,0.89375 -13.9651,0.89375 h -3.3046 q -0.1066,0.99305 -0.2132,2.58192 -0.1066,1.58888 -0.1066,3.07845 0,8.143 4.3707,12.51242 4.3708,4.2701 11.9396,4.2701 4.4774,0 8.1019,-1.09235 3.6245,-1.19166 6.6094,-2.28401 v 3.57497 q -2.7717,1.29096 -6.8226,2.28401 -4.051,0.99305 -8.6349,0.99305 z m -10.3405,-29.29493 q 8.4217,0 14.9244,-1.39027 6.6095,-1.48957 10.3405,-4.46872 3.8378,-2.97914 3.8378,-7.64647 0,-3.67428 -2.5585,-5.95829 -2.5584,-2.38332 -7.6754,-2.38332 -4.6905,0 -9.4877,2.58193 -4.6906,2.58192 -8.4217,7.44786 -3.6245,4.86594 -5.2236,11.81728 z m 39.9763,28.30188 12.0462,-52.63157 h 3.5179 l -2.5585,13.00893 h 0.2132 q 1.8123,-3.07845 4.9038,-6.2562 3.1981,-3.27706 7.5689,-5.46177 4.4773,-2.28401 9.914,-2.28401 4.6906,0 7.8887,1.48957 3.1981,1.48957 4.9038,4.36942 1.7057,2.87984 1.7057,7.14995 0,1.58887 -0.3199,3.47567 -0.2132,1.78749 -0.6396,3.47567 l -7.6754,33.66434 h -4.2642 l 7.7821,-34.06156 q 0.4263,-1.88679 0.6395,-3.27706 0.2133,-1.48957 0.2133,-2.78054 0,-5.06455 -2.9849,-7.44786 -2.8783,-2.48263 -8.1019,-2.48263 -5.3302,0 -10.4472,3.17776 -5.0103,3.07845 -8.7414,8.44092 -3.7312,5.36246 -5.2235,12.11518 l -6.0765,26.31579 z m 72.7036,0.99305 q -5.3301,0 -8.1019,-2.48262 -2.7716,-2.48262 -2.7716,-7.14995 0,-1.29096 0.2132,-2.78054 0.2132,-1.58887 0.6396,-3.27705 l 7.7821,-34.55809 h -8.3152 l 0.6397,-2.58193 8.4217,-0.99305 4.2641,-12.61172 h 2.8783 l -2.8783,12.81033 h 16.7368 l -0.8529,3.37637 h -16.7368 l -7.782,34.35947 q -0.4264,1.48958 -0.6397,3.07846 -0.1065,1.48957 -0.1065,2.78054 0,3.07844 1.599,4.86593 1.5991,1.68818 5.3302,1.68818 2.4519,0 4.3708,-0.29791 2.0254,-0.39722 3.7311,-0.99305 v 3.37637 q -1.5991,0.49652 -3.7311,0.89374 -2.0255,0.49652 -4.6906,0.49652 z m 70.8912,0 q -5.0104,0 -8.4216,-1.78748 -3.4113,-1.78749 -5.3302,-4.56803 -1.8123,-2.87984 -2.4519,-5.85898 h -0.3198 l -2.8783,11.22144 h -3.4113 l 17.1632,-75.47169 h 4.1575 l -4.7971,20.75472 q -0.4265,2.28401 -1.1727,5.06454 -0.6396,2.78054 -1.3859,5.36247 -0.6396,2.58192 -1.2792,4.66732 h 0.3198 q 2.1321,-3.27705 5.3302,-6.45481 3.1981,-3.27706 7.4622,-5.36246 4.2642,-2.08541 9.4877,-2.08541 5.0104,0 8.7416,2.28402 3.731,2.1847 5.6499,6.35551 2.0255,4.1708 2.0255,9.83118 0,5.06455 -1.1726,10.2284 -1.0661,5.06455 -3.4114,9.73188 -2.2387,4.56802 -5.7565,8.2423 -3.5179,3.67428 -8.1019,5.75969 -4.584,2.08539 -10.4472,2.08539 z m -0.1065,-3.47567 q 5.0103,0 8.848,-1.88679 3.9443,-1.88679 6.9293,-5.06455 2.9849,-3.27706 5.0103,-7.44786 2.0255,-4.1708 2.985,-8.83814 1.0659,-4.66732 1.0659,-9.33465 0,-7.05065 -3.5178,-11.02284 -3.4114,-4.0715 -9.701,-4.0715 -3.6245,0 -6.9292,1.39027 -3.1981,1.29096 -6.0764,3.67428 -2.8783,2.28401 -5.2236,5.46176 -2.3453,3.17776 -3.9443,6.95134 -1.599,3.67429 -2.5584,7.74579 -0.8529,3.97219 -0.8529,8.04369 0,7.14995 3.8377,10.82423 3.8377,3.57497 10.1274,3.57497 z M 1756.8556,490 q -2.2387,0 -3.6245,-0.29791 -1.4925,-0.19861 -2.7717,-0.69514 v -3.47567 q 1.2792,0.49653 2.7717,0.79445 1.4925,0.29791 3.6245,0.29791 3.9444,0 7.0359,-2.78054 3.198,-2.68123 6.6094,-8.34161 l 6.1829,-9.93048 -9.1679,-52.23436 h 4.051 l 5.7566,33.56504 q 0.533,3.07846 0.9594,5.85899 0.4265,2.78053 0.6397,5.06455 0.3198,2.1847 0.4263,3.77358 h 0.2132 q 0.8529,-1.48957 1.9189,-3.67427 1.1726,-2.18471 2.6651,-4.76664 1.4925,-2.58193 3.1981,-5.36246 l 20.4679,-34.45879 h 4.4774 l -38.1641,63.55511 q -2.5585,4.17081 -5.117,7.14995 -2.5585,2.97915 -5.5434,4.46872 Q 1760.5867,490 1756.8556,490 Z m 83.1509,-24.03178 16.0971,-70.90367 h 15.9905 q 14.3915,0 22.4933,7.05065 8.2085,7.05065 8.2085,21.54916 0,6.75273 -1.8123,13.00893 -1.8122,6.1569 -5.5434,11.51936 -3.6245,5.36246 -9.2745,9.33466 -5.5434,3.97219 -13.1122,6.25621 -7.4622,2.1847 -16.8434,2.1847 z m 16.4168,-3.57497 q 8.3151,0 14.9246,-1.98609 6.716,-1.9861 11.7263,-5.56108 5.1171,-3.67428 8.5283,-8.44091 3.4113,-4.86594 5.117,-10.62562 1.7057,-5.85899 1.7057,-12.11519 0,-13.00894 -7.2491,-18.96723 -7.1424,-6.0576 -20.1481,-6.0576 h -11.4065 l -14.6047,63.75372 z m 76.5413,4.56802 q -5.3302,0 -9.8075,-2.08539 -4.4774,-2.18471 -7.2491,-6.65343 -2.7716,-4.46872 -2.7716,-11.51937 0,-6.95134 2.132,-13.10824 2.1321,-6.25621 6.0764,-11.02284 3.9444,-4.76664 9.1679,-7.44786 5.3302,-2.78054 11.5132,-2.78054 6.3962,0 10.1274,3.27706 3.731,3.17775 3.731,8.34161 0,4.66733 -2.6651,7.94439 -2.5584,3.17776 -7.249,5.26315 -4.5839,1.9861 -10.9802,2.97915 -6.3962,0.89375 -13.965,0.89375 h -3.3048 q -0.1065,0.99305 -0.2131,2.58192 -0.1066,1.58888 -0.1066,3.07845 0,8.143 4.3707,12.51242 4.3707,4.2701 11.9397,4.2701 4.4773,0 8.1018,-1.09235 3.6245,-1.19166 6.6094,-2.28401 v 3.57497 q -2.7717,1.29096 -6.8226,2.28401 -4.0509,0.99305 -8.6349,0.99305 z m -10.3405,-29.29493 q 8.4217,0 14.9245,-1.39027 6.6094,-1.48957 10.3405,-4.46872 3.8377,-2.97914 3.8377,-7.64647 0,-3.67428 -2.5585,-5.95829 -2.5584,-2.38332 -7.6754,-2.38332 -4.6906,0 -9.4877,2.58193 -4.6906,2.58192 -8.4217,7.44786 -3.6245,4.86594 -5.2236,11.81728 z m 29.7424,52.13506 q -1.5991,0 -3.518,-0.29792 -1.9189,-0.29791 -3.0915,-0.69513 v -3.57498 q 1.4925,0.49653 3.1981,0.79444 1.7057,0.29792 3.1982,0.29792 3.7311,0 6.0763,-2.58193 2.2387,-2.58193 3.4114,-7.54717 l 13.5386,-59.48361 h -9.9141 l 0.4264,-2.48262 10.2339,-0.89375 1.7057,-7.44787 q 0.9594,-3.87289 2.3453,-6.85203 1.4924,-3.07846 3.6244,-5.06455 2.1321,-1.9861 5.0104,-2.97915 2.9849,-0.99305 6.9293,-0.99305 2.5585,0 4.7971,0.49653 2.2387,0.39721 3.7312,0.89374 l -1.1727,3.37637 q -1.7056,-0.69514 -3.5179,-0.99305 -1.8123,-0.29792 -3.8377,-0.29792 -5.9699,0 -9.1679,2.97915 -3.1982,2.97914 -4.6906,9.83118 l -1.599,7.05065 h 12.6858 l -0.7463,3.37637 h -12.6858 l -13.7518,59.98013 q -0.9594,4.46872 -2.7717,7.34856 -1.8122,2.97915 -4.3708,4.36941 -2.5584,1.39028 -6.0763,1.39028 z m 57.246,-22.84013 q -5.0104,0 -8.5284,-2.28401 -3.4112,-2.28401 -5.2235,-6.45481 -1.8122,-4.17081 -1.8122,-9.83118 0,-5.06455 1.1726,-10.1291 1.2793,-5.16385 3.6245,-9.83118 2.3453,-4.66733 5.7566,-8.2423 3.4113,-3.57498 7.8887,-5.66038 4.5839,-2.18471 10.0207,-2.18471 4.7971,0 7.7821,1.8868 3.0915,1.88679 4.7971,4.76663 1.7056,2.78053 2.3453,5.66038 h 0.3197 l 2.985,-11.32076 h 3.3047 l -11.9396,52.63157 h -3.4113 l 2.6651,-13.00893 h -0.3199 q -1.9188,2.97915 -5.1169,6.25621 -3.1981,3.27705 -7.3557,5.56107 -4.1575,2.1847 -8.9546,2.1847 z m 0.8528,-3.47567 q 4.7971,0 9.5943,-3.07844 4.7971,-3.17776 8.5283,-8.54022 3.8377,-5.46177 5.4368,-12.1152 0.6396,-3.07845 0.9594,-5.26315 0.3198,-2.28402 0.3198,-4.17081 0,-6.85204 -3.4113,-10.62562 -3.3047,-3.87289 -9.2745,-3.87289 -4.5839,0 -8.4217,1.8868 -3.8377,1.88679 -6.8226,5.16384 -2.9849,3.17776 -5.0104,7.34856 -1.9189,4.17081 -2.9848,8.83814 -1.0661,4.66733 -1.0661,9.33466 0,7.05064 3.0915,11.12214 3.0915,3.97219 9.0613,3.97219 z m 57.2461,3.47567 q -4.5839,0 -7.8886,-1.48957 -3.1981,-1.48957 -4.9037,-4.36941 -1.5992,-2.87984 -1.5992,-7.14995 0,-1.48957 0.2132,-3.27706 0.3199,-1.8868 0.7463,-3.67428 l 7.5689,-33.66435 h 4.1575 l -7.782,34.16087 q -0.4264,1.68818 -0.6397,3.17776 -0.1066,1.48957 -0.1066,2.78054 0,5.06454 2.8783,7.54716 2.8783,2.48262 8.2085,2.48262 5.5434,0 10.5538,-3.17775 5.0103,-3.17776 8.7414,-8.54022 3.7312,-5.36246 5.2235,-12.01589 l 6.0765,-26.41509 h 4.0509 l -11.9396,52.63157 h -3.5179 l 2.665,-13.00893 h -0.3197 q -1.7057,2.97915 -4.9038,6.25621 -3.198,3.27705 -7.5688,5.56107 -4.3708,2.1847 -9.9142,2.1847 z m 42.5349,-0.99305 17.1631,-75.47169 h 4.1576 l -17.1632,75.47169 z m 36.2452,0.99305 q -5.3302,0 -8.1018,-2.48262 -2.7717,-2.48262 -2.7717,-7.14995 0,-1.29096 0.2132,-2.78054 0.2132,-1.58887 0.6396,-3.27705 l 7.7821,-34.55809 h -8.3151 l 0.6397,-2.58193 8.4216,-0.99305 4.2642,-12.61172 h 2.8783 l -2.8783,12.81033 H 2166 l -0.8529,3.37637 h -16.7367 l -7.782,34.35947 q -0.4265,1.48958 -0.6397,3.07846 -0.1065,1.48957 -0.1065,2.78054 0,3.07844 1.599,4.86593 1.599,1.68818 5.3302,1.68818 2.4519,0 4.3708,-0.29791 2.0254,-0.39722 3.731,-0.99305 v 3.37637 q -1.599,0.49652 -3.731,0.89374 -2.0256,0.49652 -4.6907,0.49652 z" />
</svg>
